PathFileType	4	(X/Y/Z)	/Users/mathieubourgeois/Desktop/Analyse/Traitement/Sujet_05/Data/Transformed_Sujet_05_velo_100.trc
DataRate	CameraRate	NumFrames	NumMarkers	Units	OrigDataRate	OrigDataStartFrame	OrigNumFrames
120.000000	120.000000	4	36	mm	120.000000	481	1924
Frame#	Time	RFHD			RANE			STRN			LANI			LKNE			T10			RHUM			RWRB			C7			LFWT			LTOE			RTOE			LWRA			LBWT			RBWT			RFWT			LKNI			RKNI			RKNE			LANE			RANI			LHEE			RHEE			LHUM			LRAD			RRAD			RWRA			LWRB			LFHD			LBHD			RBHD			RSHO			LSHO			CLAV			LCAR			RCAR			
		X1	Y1	Z1	X2	Y2	Z2	X3	Y3	Z3	X4	Y4	Z4	X5	Y5	Z5	X6	Y6	Z6	X7	Y7	Z7	X8	Y8	Z8	X9	Y9	Z9	X10	Y10	Z10	X11	Y11	Z11	X12	Y12	Z12	X13	Y13	Z13	X14	Y14	Z14	X15	Y15	Z15	X16	Y16	Z16	X17	Y17	Z17	X18	Y18	Z18	X19	Y19	Z19	X20	Y20	Z20	X21	Y21	Z21	X22	Y22	Z22	X23	Y23	Z23	X24	Y24	Z24	X25	Y25	Z25	X26	Y26	Z26	X27	Y27	Z27	X28	Y28	Z28	X29	Y29	Z29	X30	Y30	Z30	X31	Y31	Z31	X32	Y32	Z32	X33	Y33	Z33	X34	Y34	Z34	X35	Y35	Z35	X36	Y36	Z36	

482	4.008333333333333	149.1884155273438	1358.82373046875	106.6175918579101	-140.7551727294922	317.9950866699219	204.5688018798828	-203.0333709716797	1141.15380859375	31.95145225524893	-327.01953125	535.2936401367188	-66.01900482177741	-88.58850097656247	811.6713256835938	-178.3985137939454	-328.4120788574219	1348.259155273438	44.24908065795886	25.73041534423826	1034.5400390625	199.9844360351562	243.6880645751953	891.8470458984375	250.62109375	-102.2747573852539	1410.09814453125	28.49775695800771	-364.5669555664062	1073.4951171875	-80.40601348876964	-271.8553466796875	367.4552307128906	-81.00177001953131	35.04607009887693	226.9468078613281	160.2532806396484	279.4296264648438	940.5668334960938	-153.3450164794922	-535.3513793945312	1099.348388671875	-5.489547252655163	-518.2154541015625	1104.41552734375	131.5421295166014	-349.7150573730469	1062.405883789062	165.5484924316405	-82.20166778564452	784.3080444335938	-71.94586944580084	-107.651351928711	677.8558349609375	117.5217132568359	-127.2772827148438	718.2532958984375	222.5541229248046	-351.6299438476562	549.923583984375	-144.9312744140626	-107.3156356811524	326.5807189941406	123.1315612792968	-415.9032287597656	555.957763671875	-98.60202026367196	-198.3410797119141	293.0693969726562	159.6235809326171	21.89738464355471	1041.049682617188	-148.9644012451172	66.62063598632815	1071.598754882812	-195.5584411621094	65.86527252197263	1067.666625976562	251.3187255859374	275.036376953125	936.9683837890625	200.1326293945312	249.4444580078125	887.6185302734375	-187.4369049072266	154.8627166748047	1359.3994140625	-40.46233367919928	30.11975479125977	1448.062133789062	-50.52894210815438	18.3852252960205	1471.197143554688	82.76612091064445	-27.75130844116213	1325.614868164062	175.5969085693359	-72.0203170776367	1323.045043945312	-126.1279830932618	-83.91829681396484	1265.20068359375	32.47884750366202	325.9348754882812	937.259521484375	-227.1055145263672	324.1978454589843	927.4173583984375	287.7919921875	
483	4.016666666666667	149.4965515136719	1359.055908203125	104.1553039550781	-150.58642578125	304.4427795410156	204.3230590820312	-202.9703979492188	1140.574340820312	30.942771911621	-318.8497314453125	549.7880859375	-65.23050689697273	-81.90402221679685	825.2687377929688	-179.2413635253907	-328.2823181152344	1347.852294921875	44.30120086669909	25.13918876647947	1034.242797851562	199.4107666015624	243.3328247070312	891.80712890625	250.6768035888672	-102.4608688354492	1410.066772460938	26.41730117797842	-364.1680603027344	1073.038330078125	-79.54902648925793	-261.9296569824219	383.0346374511719	-80.49974060058599	24.875768661499	211.8256225585938	160.3749084472656	278.8785095214844	940.7652587890625	-153.5389556884766	-534.6914672851562	1098.9541015625	-4.244344711303844	-517.0480346679688	1103.654052734375	132.8340759277343	-348.6145629882812	1060.858154296875	166.9525909423827	-74.24548339843749	798.3333740234375	-72.34809875488287	-118.7917251586914	664.6098022460938	116.7547760009765	-138.4968719482422	705.3290405273438	221.7651367187499	-343.7778930664062	564.190185546875	-144.1289672851563	-116.2098541259766	313.2252197265625	123.2232055664062	-408.7338562011719	569.5330810546875	-97.43443298339852	-207.821029663086	280.5068969726562	158.7721862792968	20.80801773071291	1040.507690429688	-149.2708892822266	65.34210205078128	1070.870483398438	-196.2150115966797	64.99716949462888	1067.360961914062	250.9258728027343	274.6391906738281	937.0736694335938	200.2720794677734	249.1063842773438	887.6307373046875	-187.4373931884766	154.8323822021484	1359.426391601562	-42.93619918823249	30.00032997131348	1447.991821289062	-52.86116409301766	18.52727508544921	1471.3056640625	80.43718719482413	-27.48416900634768	1325.723022460938	173.9720916748046	-73.31826019287108	1322.608154296875	-128.1277618408204	-83.95673370361328	1265.006469726562	30.75780105590811	325.4904479980469	937.2696533203125	-227.2008361816407	323.9132995605468	927.3781127929688	287.89892578125	
484	4.025	149.8194122314453	1359.280151367188	101.788589477539	-161.4918518066407	292.3572082519531	203.7662200927734	-202.8074035644531	1140.294189453125	29.91854667663565	-310.8863525390625	563.1527709960938	-64.01754760742195	-75.71681213378903	839.0206298828125	-179.810531616211	-327.974853515625	1347.69873046875	44.29163742065417	24.68301773071287	1034.00537109375	198.9878387451171	243.0811309814453	891.7197265625	250.732925415039	-102.4315338134766	1410.171752929688	24.42380714416494	-363.9457397460938	1073.037475585938	-78.33985137939464	-248.8106842041016	398.0278930664062	-80.65264129638678	13.25068759918211	197.306396484375	160.6305541992188	278.3343505859375	940.86767578125	-153.7298126220703	-533.9711303710938	1098.907104492188	-3.222987413406505	-515.8970336914062	1103.219482421875	133.991485595703	-347.58935546875	1059.747314453125	167.3556976318359	-58.98640441894531	815.9701538085938	-72.69040679931648	-130.3057556152344	653.2107543945312	116.037254333496	-150.1453857421875	693.7770385742188	220.9318389892578	-335.1869201660156	577.1502075195312	-143.2979125976563	-126.0445861816406	301.1776733398438	123.1211776733398	-399.3374328613281	581.3341674804688	-96.93682861328134	-218.5529174804688	270.1454467773438	158.246353149414	19.88311004638674	1040.048583984375	-149.6818542480469	64.26700592041018	1070.2412109375	-196.8776245117188	64.36261749267575	1067.0751953125	250.5273895263671	274.359375	937.1162719726562	200.4293212890625	248.7772369384766	887.5841674804688	-187.4849090576172	154.9445343017578	1359.481689453125	-45.31610488891608	30.12617111206055	1448.058837890625	-55.14249420166023	18.86707878112792	1471.555786132812	78.15222930908195	-27.10302352905276	1325.8642578125	172.4948730468749	-74.33741760253905	1322.260620117188	-130.0785064697266	-83.81167602539062	1265.08935546875	29.04135131835929	325.1542053222656	937.1383056640625	-227.3214263916016	323.7221069335937	927.279052734375	287.9736633300781	
485	4.033333333333333	150.2740478515625	1359.580200195312	99.52526855468743	-173.22412109375	281.8395385742188	202.9657592773437	-202.6516418457031	1140.222045898438	28.84383392333975	-300.9304504394531	575.2449951171875	-63.4391174316407	-69.9199295043945	852.6865844726562	-180.1230621337891	-327.5547485351562	1347.797729492188	44.23464584350573	24.49487304687498	1033.846313476562	198.6609954833984	242.9861907958984	891.6063232421875	250.7635650634765	-102.1530456542969	1410.39892578125	22.60986137390127	-363.6284790039062	1072.8759765625	-77.75174713134777	-232.0643005371094	413.3531494140625	-81.14295196533209	0.3304283916950029	183.5994415283203	160.8622131347656	277.9762878417969	940.9024658203125	-153.9538269042969	-533.2767944335938	1099.278442382812	-2.448801040649547	-514.8939819335938	1103.181274414062	134.8943328857421	-346.7799377441406	1058.876831054688	167.5342864990234	-58.32191085815429	827.3075561523438	-72.57895660400398	-141.4471588134766	642.71142578125	114.8542480468749	-161.8654479980469	683.6856079101562	220.1042785644531	-325.8514709472656	588.5765991210938	-142.455307006836	-136.446517944336	290.6184997558594	122.8360977172851	-391.1160278320312	591.2841186523438	-95.60819244384774	-229.7842254638672	260.9406127929688	156.484634399414	19.18605422973635	1039.74169921875	-150.1073303222657	63.43019866943362	1069.706420898438	-197.480941772461	64.07022857666013	1066.893920898438	250.1946258544921	274.2388916015625	937.07666015625	200.5466766357422	248.532455444336	887.46923828125	-187.5560302734375	155.1843872070312	1359.575317382812	-47.59563064575202	30.39751815795899	1448.254516601562	-57.31151962280281	19.38612174987792	1471.9345703125	75.94107055664054	-26.58846664428713	1325.925903320312	171.1157684326171	-74.94203186035155	1321.999145507812	-131.9399719238282	-83.57305908203125	1265.30615234375	27.41707038879386	324.9288024902344	936.9014892578125	-227.4534149169922	323.6818847656249	927.1279296875	288.0397644042969	
